<svg width="242" height="166" viewBox="0 0 242 166" fill="none" xmlns="http://www.w3.org/2000/svg">
<path d="M178.186 99.99C178.194 108.386 176.381 116.692 172.865 124.374C169.349 132.056 164.206 138.945 157.767 144.6C155.975 146.174 154.092 147.649 152.126 149.016C149.603 150.77 146.947 152.34 144.181 153.712H144.152C143.562 154.01 142.963 154.294 142.359 154.569C142.083 154.699 141.813 154.82 141.532 154.941C139.783 155.715 137.988 156.409 136.148 157.024C134.698 157.49 133.21 157.955 131.707 158.337C123.036 160.56 113.973 160.972 105.125 159.544C104.076 159.376 103.042 159.185 102.012 158.966L101.142 158.775C98.5161 158.184 95.9329 157.428 93.4092 156.511C91.9432 155.98 90.5062 155.398 89.0981 154.764C88.552 154.517 88.0059 154.266 87.4694 154.005C87.1021 153.828 86.7396 153.646 86.3771 153.465C76.5432 148.487 68.2585 141.079 62.3715 132C56.4844 122.921 53.2065 112.498 52.8734 101.796C52.5403 91.0946 55.164 80.5 60.4758 71.0973C65.7875 61.6946 73.5966 53.8215 83.1032 48.2843C92.6098 42.7472 103.472 39.7448 114.579 39.5848C125.685 39.4247 136.636 42.1126 146.31 47.3734C155.984 52.6341 164.034 60.2786 169.635 69.524C175.236 78.7695 178.187 89.2837 178.186 99.99Z" fill="url(#paint0_linear_191163_10)"/>
<path d="M131.938 104.36C135.931 108.319 147.559 123.73 147.559 123.73L140.416 133.825L133.993 113.77L131.938 104.36Z" fill="url(#paint1_linear_191163_10)"/>
<path d="M144.152 153.744C143.562 154.042 142.963 154.326 142.359 154.601C142.083 154.732 141.813 154.853 141.532 154.974C139.783 155.747 137.988 156.441 136.148 157.056C134.698 157.522 133.21 157.988 131.707 158.37C123.036 160.593 113.973 161.004 105.125 159.576C104.076 159.409 103.042 159.218 102.012 158.999C98.2423 161.505 94.7625 163.625 92.4571 164.589L92.6456 163.038L93.4286 156.548L95.241 141.45L102.423 134.756L86.2756 135.963C86.2756 135.963 87.972 113.276 94.5934 108.608C101.215 103.94 108.16 99.7569 108.16 99.7569C108.988 100.284 109.901 100.675 110.861 100.917V100.917C113.158 101.529 115.545 101.763 117.923 101.611C120.755 101.485 123.587 98.9464 123.722 98.8159C123.722 98.8159 128.169 99.6684 131.939 104.378C133.819 106.803 135.169 109.57 135.906 112.512C136.834 115.954 138.483 123.995 140.358 133.708C141.585 139.96 142.876 146.891 144.152 153.744Z" fill="url(#paint2_linear_191163_10)"/>
<path d="M147.559 123.748L154.451 131.532L178.689 108.343L179.607 103.596L184.44 99.5474L182.29 105.72V113.76C182.29 113.76 163.595 142.969 158.443 144.474C152.416 146.239 140.426 133.815 140.426 133.815L147.559 123.748Z" fill="url(#paint3_linear_191163_10)"/>
<path d="M122.398 134.393L128.019 147.437L135.283 144.427L129.957 131.663L122.398 134.393Z" fill="#7E57C2"/>
<path d="M130.228 142.82C129.324 143.537 127.976 143.37 126.303 143.453C124.057 143.51 121.902 144.325 120.214 145.755C117.966 147.576 111.683 152.342 105.4 156.693C104.26 157.48 103.119 158.258 102.017 159.022C98.2473 161.528 94.7674 163.648 92.4621 164.612C91.856 164.902 91.2015 165.087 90.5288 165.157C87.3003 165.237 86.6092 158.715 86.4111 153.511C86.3482 151.783 86.3337 150.204 86.2999 149.062C86.1646 144.497 86.2999 136.019 86.2999 136.019L102.447 134.807L100.736 145.587L100.437 147.492V147.506L105.27 145.783L105.42 145.731L122.577 139.587L123.761 137.616L124.515 139.48H124.588L131.934 138.548C131.934 138.548 132.059 141.371 130.228 142.82Z" fill="url(#paint4_linear_191163_10)"/>
<path d="M126.521 74.8342C126.1 73.7254 125.738 72.9708 125.631 72.7472V72.6913C125.631 72.6913 125.259 73.5764 122.456 73.3621C119.653 73.1478 118.725 71.8062 118.725 71.8062C118.725 71.8062 119.605 74.713 116.265 75.9569C113.051 77.1587 111.785 76.3808 111.698 76.3249C111.867 76.5019 114.38 79.092 112.713 81.1464C110.987 83.2753 107.106 82.8561 107.106 82.8561V82.884C107.595 83.9501 108.142 84.9904 108.745 86.0005C109.064 86.5316 109.378 87.0208 109.711 87.4773V87.5099C110.567 88.852 111.723 89.9931 113.094 90.85C112.492 94.2591 110.761 97.3887 108.16 99.771V99.771C109.035 100.211 109.937 100.598 110.862 100.931C112.664 101.588 115.086 102.24 117.246 102.058C119.749 101.8 122.062 100.651 123.732 98.8347L122.625 94.7398L121.63 91.0503C130.629 88.8376 128.154 79.2131 126.521 74.8342ZM121.127 91.1854L121.286 91.1482L121.543 91.0783C121.17 91.2337 120.776 91.3373 120.373 91.3858C120.581 91.3345 120.793 91.2786 121.016 91.2134L121.127 91.1854Z" fill="url(#paint5_linear_191163_10)"/>
<path d="M131.938 72.5701C128.227 75.859 126.622 74.932 126.521 74.8434V74.8341C126.1 73.7254 125.738 72.9707 125.636 72.7471L125.612 72.6912C125.612 72.6912 125.235 73.5763 122.432 73.3621C119.629 73.1478 118.705 71.8061 118.705 71.8061C118.705 71.8061 119.585 74.713 116.245 75.9568C113.027 77.1587 111.76 76.3808 111.678 76.3249C111.847 76.4972 114.361 79.0873 112.693 81.1417C110.968 83.2706 107.087 82.856 107.087 82.856V82.8793C107.575 83.947 108.122 84.9889 108.725 86.0005C109.047 86.5285 109.37 87.0207 109.692 87.4773V87.5099C109.692 87.5099 108.368 90.0208 106.004 89.9695C103.641 89.9183 103.588 87.6403 103.588 87.6403C103.588 87.6403 101.915 90.5472 96.7488 87.7474C91.5822 84.9477 95.0282 80.8902 95.0282 80.8902C95.0282 80.8902 91.3647 78.1882 91.3647 74.14C91.3647 70.0918 97.0678 67.0125 97.0678 67.0125C97.0678 67.0125 95.0282 62.3121 98.4694 59.722C101.911 57.1319 107.082 58.8881 107.082 58.8881C107.082 58.8881 106.98 52.8741 112.248 52.9719C117.517 53.0697 118.71 56.1769 118.71 56.1769C118.71 56.1769 123.447 52.6458 128.135 55.9719C132.823 59.2981 130.894 65.0979 130.894 65.0979C130.894 65.0979 135.81 69.1461 131.938 72.5701Z" fill="url(#paint6_linear_191163_10)"/>
<path opacity="0.15" d="M122.664 94.7258C120.417 94.041 116.42 91.4276 116.42 91.4276C117.997 91.5883 119.591 91.5065 121.142 91.1853L121.301 91.1481L121.61 91.0596H121.654L122.664 94.7258Z" fill="black"/>
<path opacity="0.15" d="M104.603 120.823L102.423 134.798L100.712 145.578L96.7295 148.769L105.395 145.736C105.395 145.736 103.148 139.55 104.603 120.823Z" fill="black"/>
<path opacity="0.15" d="M102.002 158.999C103.032 159.218 104.066 159.409 105.115 159.576C105.168 158.621 105.265 157.657 105.4 156.693L102.002 158.999Z" fill="black"/>
<g filter="url(#filter0_d_191163_10)">
<path d="M81.0561 10H55.2136C51.6475 10 48.7566 12.7865 48.7566 16.2237V41.1326C48.7566 44.5699 51.6475 47.3564 55.2136 47.3564H81.0561C84.6222 47.3564 87.5131 44.5699 87.5131 41.1326V16.2237C87.5131 12.7865 84.6222 10 81.0561 10Z" fill="#56CCF2"/>
</g>
<g clip-path="url(#clip0_191163_10)">
<path d="M77.8319 27.3725H73.9033L76.9557 24.41L75.6273 23.1117L71.2371 27.3725H69.3529V25.5438L73.7431 21.283L72.4053 19.9938L69.3529 22.9562V19.1434H67.4687V22.9562L64.4163 19.9938L63.0785 21.283L67.4687 25.5438V27.3725H65.5845L61.1943 23.1117L59.8659 24.41L62.9183 27.3725H58.9897V29.2012H62.9183L59.8659 32.1636L61.1943 33.462L65.5845 29.2012H67.4687V31.0298L63.0785 35.2907L64.4163 36.5799L67.4687 33.6174V37.4302H69.3529V33.6174L72.4053 36.5799L73.7431 35.2907L69.3529 31.0298V29.2012H71.2371L75.6273 33.462L76.9557 32.1636L73.9033 29.2012H77.8319V27.3725Z" fill="white"/>
</g>
<g filter="url(#filter1_d_191163_10)">
<path d="M214.705 98.1769H188.862C185.296 98.1769 182.405 100.963 182.405 104.401V129.31C182.405 132.747 185.296 135.533 188.862 135.533H214.705C218.271 135.533 221.162 132.747 221.162 129.31V104.401C221.162 100.963 218.271 98.1769 214.705 98.1769Z" fill="#F2C94C"/>
</g>
<path d="M210.668 113.721C210.668 109.149 206.9 105.492 202.189 105.492C197.479 105.492 193.71 109.149 193.71 113.721C193.71 116.555 195.218 119.115 197.479 120.578V122.864C197.479 124.053 198.233 125.058 199.363 125.424V125.607C199.363 127.161 200.588 128.35 202.189 128.35C203.791 128.35 205.016 127.161 205.016 125.607V125.424C206.146 125.058 206.9 124.053 206.9 122.864V120.578C209.161 119.115 210.668 116.555 210.668 113.721ZM195.595 113.721C195.595 110.155 198.515 107.32 202.189 107.32C205.864 107.32 208.784 110.155 208.784 113.721C208.784 116.921 206.335 119.572 203.131 120.03V117.744L204.733 116.189C205.11 115.824 205.11 115.275 204.733 114.909C204.356 114.544 203.791 114.544 203.414 114.909L202.189 116.098L200.965 114.909C200.588 114.544 200.023 114.544 199.646 114.909C199.269 115.275 199.269 115.824 199.646 116.189L201.247 117.744V120.03C198.044 119.572 195.595 116.921 195.595 113.721ZM202.189 126.521C201.624 126.521 201.247 126.156 201.247 125.607H203.131C203.131 126.156 202.755 126.521 202.189 126.521ZM205.016 122.864C205.016 123.413 204.639 123.778 204.074 123.778H200.305C199.74 123.778 199.363 123.413 199.363 122.864V121.493C200.211 121.767 201.153 121.95 202.189 121.95C203.226 121.95 204.168 121.767 205.016 121.493V122.864Z" fill="white"/>
<g filter="url(#filter2_d_191163_10)">
<path d="M42.2995 98.1769H16.457C12.8909 98.1769 10 100.963 10 104.401V129.309C10 132.747 12.8909 135.533 16.457 135.533H42.2995C45.8656 135.533 48.7565 132.747 48.7565 129.309V104.401C48.7565 100.963 45.8656 98.1769 42.2995 98.1769Z" fill="#F58A8A"/>
</g>
<g clip-path="url(#clip1_191163_10)">
<path d="M35.4368 113.721H34.4947V111.892C34.4947 109.368 32.3844 107.32 29.7842 107.32C27.1839 107.32 25.0736 109.368 25.0736 111.892V113.721H24.1315C23.0952 113.721 22.2473 114.543 22.2473 115.549V124.693C22.2473 125.698 23.0952 126.521 24.1315 126.521H35.4368C36.4731 126.521 37.321 125.698 37.321 124.693V115.549C37.321 114.543 36.4731 113.721 35.4368 113.721ZM29.7842 121.95C28.7478 121.95 27.8999 121.127 27.8999 120.121C27.8999 119.115 28.7478 118.292 29.7842 118.292C30.8205 118.292 31.6684 119.115 31.6684 120.121C31.6684 121.127 30.8205 121.95 29.7842 121.95ZM32.7047 113.721H26.8636V111.892C26.8636 110.328 28.1732 109.057 29.7842 109.057C31.3952 109.057 32.7047 110.328 32.7047 111.892V113.721Z" fill="white"/>
</g>
<g filter="url(#filter3_d_191163_10)">
<path d="M172.31 10H146.467C142.901 10 140.01 12.7865 140.01 16.2237V41.1326C140.01 44.5699 142.901 47.3564 146.467 47.3564H172.31C175.876 47.3564 178.767 44.5699 178.767 41.1326V16.2237C178.767 12.7865 175.876 10 172.31 10Z" fill="#6FCF97"/>
</g>
<path d="M164.798 23.6205H149.412V32.953H164.798V23.6205Z" fill="white"/>
<path d="M168.945 25.4775L165.549 26.8628V29.7499L168.945 31.1352H170.177V25.4775H168.945Z" fill="white"/>
<defs>
<filter id="filter0_d_191163_10" x="38.7566" y="0" width="68.7563" height="67.3563" filterUnits="userSpaceOnUse" color-interpolation-filters="sRGB">
<feFlood flood-opacity="0" result="BackgroundImageFix"/>
<feColorMatrix in="SourceAlpha" type="matrix" values="0 0 0 0 0 0 0 0 0 0 0 0 0 0 0 0 0 0 127 0" result="hardAlpha"/>
<feOffset dx="5" dy="5"/>
<feGaussianBlur stdDeviation="7.5"/>
<feColorMatrix type="matrix" values="0 0 0 0 0 0 0 0 0 0 0 0 0 0 0 0 0 0 0.15 0"/>
<feBlend mode="normal" in2="BackgroundImageFix" result="effect1_dropShadow_191163_10"/>
<feBlend mode="normal" in="SourceGraphic" in2="effect1_dropShadow_191163_10" result="shape"/>
</filter>
<filter id="filter1_d_191163_10" x="172.405" y="88.1769" width="68.7566" height="67.3563" filterUnits="userSpaceOnUse" color-interpolation-filters="sRGB">
<feFlood flood-opacity="0" result="BackgroundImageFix"/>
<feColorMatrix in="SourceAlpha" type="matrix" values="0 0 0 0 0 0 0 0 0 0 0 0 0 0 0 0 0 0 127 0" result="hardAlpha"/>
<feOffset dx="5" dy="5"/>
<feGaussianBlur stdDeviation="7.5"/>
<feColorMatrix type="matrix" values="0 0 0 0 0 0 0 0 0 0 0 0 0 0 0 0 0 0 0.15 0"/>
<feBlend mode="normal" in2="BackgroundImageFix" result="effect1_dropShadow_191163_10"/>
<feBlend mode="normal" in="SourceGraphic" in2="effect1_dropShadow_191163_10" result="shape"/>
</filter>
<filter id="filter2_d_191163_10" x="0" y="88.1769" width="68.7563" height="67.3563" filterUnits="userSpaceOnUse" color-interpolation-filters="sRGB">
<feFlood flood-opacity="0" result="BackgroundImageFix"/>
<feColorMatrix in="SourceAlpha" type="matrix" values="0 0 0 0 0 0 0 0 0 0 0 0 0 0 0 0 0 0 127 0" result="hardAlpha"/>
<feOffset dx="5" dy="5"/>
<feGaussianBlur stdDeviation="7.5"/>
<feColorMatrix type="matrix" values="0 0 0 0 0 0 0 0 0 0 0 0 0 0 0 0 0 0 0.15 0"/>
<feBlend mode="normal" in2="BackgroundImageFix" result="effect1_dropShadow_191163_10"/>
<feBlend mode="normal" in="SourceGraphic" in2="effect1_dropShadow_191163_10" result="shape"/>
</filter>
<filter id="filter3_d_191163_10" x="130.01" y="0" width="68.7563" height="67.3563" filterUnits="userSpaceOnUse" color-interpolation-filters="sRGB">
<feFlood flood-opacity="0" result="BackgroundImageFix"/>
<feColorMatrix in="SourceAlpha" type="matrix" values="0 0 0 0 0 0 0 0 0 0 0 0 0 0 0 0 0 0 127 0" result="hardAlpha"/>
<feOffset dx="5" dy="5"/>
<feGaussianBlur stdDeviation="7.5"/>
<feColorMatrix type="matrix" values="0 0 0 0 0 0 0 0 0 0 0 0 0 0 0 0 0 0 0.15 0"/>
<feBlend mode="normal" in2="BackgroundImageFix" result="effect1_dropShadow_191163_10"/>
<feBlend mode="normal" in="SourceGraphic" in2="effect1_dropShadow_191163_10" result="shape"/>
</filter>
<linearGradient id="paint0_linear_191163_10" x1="115.773" y1="46.1374" x2="113.782" y2="165.196" gradientUnits="userSpaceOnUse">
<stop stop-color="white" stop-opacity="0"/>
<stop offset="1" stop-color="#64B5F6" stop-opacity="0.6"/>
</linearGradient>
<linearGradient id="paint1_linear_191163_10" x1="127.207" y1="100.358" x2="143.543" y2="130.139" gradientUnits="userSpaceOnUse">
<stop stop-color="#E57373"/>
<stop offset="1" stop-color="#AD1457"/>
</linearGradient>
<linearGradient id="paint2_linear_191163_10" x1="26512.5" y1="36361.5" x2="24812" y2="45068.7" gradientUnits="userSpaceOnUse">
<stop stop-color="#E57373"/>
<stop offset="1" stop-color="#AD1457"/>
</linearGradient>
<linearGradient id="paint3_linear_191163_10" x1="190.999" y1="111.124" x2="145.053" y2="138.739" gradientUnits="userSpaceOnUse">
<stop stop-color="#FFF8E1"/>
<stop offset="1" stop-color="#FFCC80"/>
</linearGradient>
<linearGradient id="paint4_linear_191163_10" x1="20399.4" y1="20383.6" x2="17931.3" y2="18657" gradientUnits="userSpaceOnUse">
<stop stop-color="#FFF8E1"/>
<stop offset="1" stop-color="#FFCC80"/>
</linearGradient>
<linearGradient id="paint5_linear_191163_10" x1="131.252" y1="79.5781" x2="106.004" y2="90.3654" gradientUnits="userSpaceOnUse">
<stop stop-color="#FFF8E1"/>
<stop offset="1" stop-color="#FFCC80"/>
</linearGradient>
<linearGradient id="paint6_linear_191163_10" x1="125.394" y1="52.7949" x2="96.9212" y2="92.7093" gradientUnits="userSpaceOnUse">
<stop stop-color="#FFB74D"/>
<stop offset="1" stop-color="#F4511E"/>
</linearGradient>
<clipPath id="clip0_191163_10">
<rect width="22.6105" height="21.9441" fill="white" transform="translate(57.1055 17.3147)"/>
</clipPath>
<clipPath id="clip1_191163_10">
<rect width="22.6105" height="21.9441" fill="white" transform="translate(18.479 106.406)"/>
</clipPath>
</defs>
</svg>
