<svg width="163" height="119" viewBox="0 0 163 119" fill="none" xmlns="http://www.w3.org/2000/svg">
<path d="M162.379 59.3565C162.373 70.2613 159.209 80.9541 153.234 90.263C147.26 99.572 138.705 107.138 128.507 112.132C128.048 112.36 127.586 112.58 127.121 112.791L127.024 112.836L126.692 112.987C126.418 113.115 126.148 113.234 125.869 113.353C124.126 114.113 122.339 114.795 120.506 115.399C119.466 115.744 118.415 116.063 117.353 116.356L116.082 116.69C101.941 120.27 86.9279 119.028 73.6503 113.18C73.1063 112.937 72.5623 112.69 72.0279 112.434L71.0651 111.976C61.5354 107.229 53.4515 100.23 47.5915 91.6522C46.9753 90.7582 46.388 89.843 45.8296 88.9063C45.3321 88.0917 44.8507 87.2664 44.3853 86.4305C39.8625 78.0542 37.5105 68.7718 37.5252 59.3565C37.5252 58.246 37.5573 57.1415 37.6215 56.0432C38.5241 40.6134 45.7232 26.1271 57.6878 15.6653C69.6524 5.20345 85.4383 -0.408443 101.688 0.0231735C117.938 0.45479 133.37 6.89586 144.701 17.9765C156.033 29.0571 162.37 43.9029 162.365 59.3565H162.379Z" fill="url(#paint0_linear_1_1168)"/>
<path d="M87.693 57.2468C87.693 57.2468 73.732 50.9542 72.5189 42.2957C71.3057 33.6371 72.1578 25.363 79.1142 23.0474C79.1142 23.0474 83.5143 9.71172 99.112 15.0707C114.71 20.4297 112.25 36.5203 120.775 38.4469C129.301 40.3736 145.221 32.2597 148.259 42.1584C151.297 52.0572 141.308 51.4531 134.669 59.8553C128.03 68.2576 138.284 72.6693 136.407 78.4538C134.529 84.2384 127.438 88.2153 127.438 88.2153L87.693 57.2468Z" fill="url(#paint1_linear_1_1168)"/>
<path d="M68.5762 76.2389L72.5189 86.4305H72.9474L79.1142 59.8553C75.2196 63.1 68.5762 76.2389 68.5762 76.2389Z" fill="url(#paint2_linear_1_1168)"/>
<path d="M61.6536 90.2975L59.155 91.492C56.0548 93.2585 51.4236 92.7551 51.4236 92.7551C53.9269 95.4323 68.0226 98.4618 71.9846 98.384L72.7164 88.9017H63.9354L61.6536 90.2975Z" fill="url(#paint3_linear_1_1168)"/>
<path d="M127.12 112.777L127.024 112.823L126.692 112.974C126.417 113.102 126.148 113.221 125.869 113.34C124.126 114.099 122.338 114.781 120.506 115.385C119.466 115.73 118.415 116.049 117.353 116.342L116.082 116.676C101.941 120.256 86.9278 119.014 73.6501 113.166C73.1061 112.923 72.5621 112.676 72.0278 112.42L71.0649 111.962C71.1997 108.036 71.4067 103.336 71.71 98.3796C71.9026 95.2813 72.1385 92.0824 72.4177 88.9064C72.4899 88.0781 72.5669 87.2543 72.644 86.4306C73.7801 74.7241 75.5998 63.8689 78.5172 60.4183L78.5605 60.3725C78.9309 59.888 79.4534 59.5275 80.0529 59.3429C84.2652 58.391 87.2355 58.0706 87.7025 57.2469C88.1694 56.4231 87.7025 54.8031 87.7025 54.8031L88.5401 54.6932C89.7581 54.5193 92.1218 54.1532 94.3604 53.604C94.3745 53.6083 94.3896 53.6083 94.4037 53.604C96.3823 53.1144 98.255 52.4828 99.1697 51.7231L101.047 56.4689C101.047 56.4689 115.167 54.771 120.679 59.8737C120.713 59.8975 120.744 59.9252 120.771 59.9561C120.829 60.006 120.883 60.0595 120.934 60.1163C121.262 60.4459 121.554 60.8062 121.806 61.1917C123.601 63.9376 124.872 74.9575 125.753 86.9111C125.955 89.6569 126.138 92.4943 126.297 95.2722C126.663 101.688 126.937 107.903 127.12 112.777Z" fill="url(#paint4_linear_1_1168)"/>
<path opacity="0.15" d="M127.024 112.836L126.692 112.987C126.418 113.115 126.148 113.234 125.869 113.353C124.126 114.113 122.338 114.795 120.506 115.399C119.466 115.744 118.415 116.063 117.353 116.356C110.849 109.77 108.268 101.221 108.268 101.221L126.288 95.2721L127.024 112.836Z" fill="black"/>
<path d="M120.674 59.8553C127.197 65.942 128.618 78.7193 127.414 88.229C126.211 97.7388 123.977 106.644 119.336 106.37C114.695 106.095 98.6353 95.5055 92.4299 89.7301L96.055 83.1172L109.169 88.3114V74.4678L120.674 59.8553Z" fill="url(#paint5_linear_1_1168)"/>
<path d="M120.674 59.8553C127.197 65.942 128.618 78.7193 127.414 88.229C126.211 97.7388 123.977 106.644 119.336 106.37C114.695 106.095 98.6353 95.5055 92.4299 89.7301L96.055 83.1172L109.169 88.3114V74.4678L120.674 59.8553Z" fill="url(#paint6_linear_1_1168)"/>
<g filter="url(#filter0_d_1_1168)">
<path d="M86.9371 86.4305H26.7656V88.9064H86.9371V86.4305Z" fill="url(#paint7_linear_1_1168)"/>
<path d="M60.7581 56.0432H15L26.7657 86.4305H72.5189L60.7581 56.0432Z" fill="url(#paint8_linear_1_1168)"/>
</g>
<path d="M40.5051 88.9064C40.5051 88.9064 48.4003 92.6636 53.4165 92.7551C58.4328 92.8466 63.9402 88.9064 63.9402 88.9064H40.5051Z" fill="url(#paint9_linear_1_1168)"/>
<path d="M96.0552 83.1172C96.0552 83.1172 89.1132 79.7856 86.1237 79.4194C83.1341 79.0533 73.8525 86.4305 73.8525 86.4305H86.9469L92.4446 89.7301L96.0552 83.1172Z" fill="url(#paint10_linear_1_1168)"/>
<path d="M98.5826 44.2178C98.617 46.7237 98.8099 49.2254 99.1603 51.7093C96.0552 53.3706 92.4205 54.263 88.5307 54.6977L88.3045 51.7093L88.1697 49.8788V49.8193C87.4199 49.8033 86.6806 49.6478 85.9937 49.3617C81.2951 47.435 80.2842 38.0168 80.2842 38.0168C82.1665 37.9435 84.6169 34.7172 84.6169 34.7172C85.9889 36.7125 92.3531 40.5658 96.0456 39.5315C99.738 38.4973 99.4491 36.0214 99.4491 36.0214C100.117 36.2891 100.695 36.7261 101.119 37.2845C101.544 37.843 101.798 38.5015 101.856 39.1883C102.054 41.6047 98.5826 44.2178 98.5826 44.2178Z" fill="url(#paint11_linear_1_1168)"/>
<path opacity="0.15" d="M95.4292 46.8767C94.5578 48.2771 90.6151 50.5058 88.3091 51.7185L88.1743 49.888C88.3187 49.888 88.4583 49.8422 88.5931 49.8148C90.4757 49.498 92.2827 48.8608 93.9272 47.9339C93.9468 47.9265 93.9648 47.9157 93.9801 47.9018C94.4743 47.6241 94.9373 47.299 95.3618 46.9316L95.4292 46.8767Z" fill="black"/>
<path opacity="0.15" d="M103.758 86.1743L113.973 90.1466L109.159 86.847V74.4907C109.159 74.4907 107.652 85.227 103.758 86.1743Z" fill="black"/>
<defs>
<filter id="filter0_d_1_1168" x="0" y="41.0432" width="111.937" height="72.8632" filterUnits="userSpaceOnUse" color-interpolation-filters="sRGB">
<feFlood flood-opacity="0" result="BackgroundImageFix"/>
<feColorMatrix in="SourceAlpha" type="matrix" values="0 0 0 0 0 0 0 0 0 0 0 0 0 0 0 0 0 0 127 0" result="hardAlpha"/>
<feOffset dx="5" dy="5"/>
<feGaussianBlur stdDeviation="10"/>
<feColorMatrix type="matrix" values="0 0 0 0 0 0 0 0 0 0 0 0 0 0 0 0 0 0 0.2 0"/>
<feBlend mode="normal" in2="BackgroundImageFix" result="effect1_dropShadow_1_1168"/>
<feBlend mode="normal" in="SourceGraphic" in2="effect1_dropShadow_1_1168" result="shape"/>
</filter>
<linearGradient id="paint0_linear_1_1168" x1="100.208" y1="6.44513" x2="98.2781" y2="123.43" gradientUnits="userSpaceOnUse">
<stop stop-color="white" stop-opacity="0"/>
<stop offset="1" stop-color="#64B5F6" stop-opacity="0.6"/>
</linearGradient>
<linearGradient id="paint1_linear_1_1168" x1="72.0616" y1="51.0046" x2="148.827" y2="51.0046" gradientUnits="userSpaceOnUse">
<stop stop-color="#EF9A9A"/>
<stop offset="1" stop-color="#D81B60"/>
</linearGradient>
<linearGradient id="paint2_linear_1_1168" x1="73.2747" y1="74.1978" x2="71.1806" y2="99.2446" gradientUnits="userSpaceOnUse">
<stop stop-color="#7E57C2"/>
<stop offset="1" stop-color="#4527A0"/>
</linearGradient>
<linearGradient id="paint3_linear_1_1168" x1="6437.34" y1="2288.76" x2="6416.9" y2="2810.63" gradientUnits="userSpaceOnUse">
<stop stop-color="#7E57C2"/>
<stop offset="1" stop-color="#4527A0"/>
</linearGradient>
<linearGradient id="paint4_linear_1_1168" x1="19217.9" y1="13459.3" x2="22869.9" y2="20504.1" gradientUnits="userSpaceOnUse">
<stop stop-color="#7E57C2"/>
<stop offset="1" stop-color="#4527A0"/>
</linearGradient>
<linearGradient id="paint5_linear_1_1168" x1="13189.7" y1="8850.41" x2="16441.2" y2="14546.8" gradientUnits="userSpaceOnUse">
<stop stop-color="#7E57C2"/>
<stop offset="1" stop-color="#4527A0"/>
</linearGradient>
<linearGradient id="paint6_linear_1_1168" x1="113.025" y1="65.0175" x2="108.049" y2="107.703" gradientUnits="userSpaceOnUse">
<stop offset="0.14" stop-color="#7E57C2" stop-opacity="0"/>
<stop offset="0.26" stop-color="#724DBB" stop-opacity="0.21"/>
<stop offset="0.48" stop-color="#5F3DAF" stop-opacity="0.55"/>
<stop offset="0.66" stop-color="#5131A7" stop-opacity="0.79"/>
<stop offset="0.81" stop-color="#482AA2" stop-opacity="0.94"/>
<stop offset="0.91" stop-color="#4527A0"/>
</linearGradient>
<linearGradient id="paint7_linear_1_1168" x1="26.7656" y1="87.6662" x2="86.9371" y2="87.6662" gradientUnits="userSpaceOnUse">
<stop stop-color="#D2D4D5"/>
<stop offset="1" stop-color="#AAACAE"/>
</linearGradient>
<linearGradient id="paint8_linear_1_1168" x1="509.088" y1="3802.8" x2="3752.65" y2="7682.13" gradientUnits="userSpaceOnUse">
<stop stop-color="#D2D4D5"/>
<stop offset="1" stop-color="#AAACAE"/>
</linearGradient>
<linearGradient id="paint9_linear_1_1168" x1="41.9975" y1="84.7739" x2="60.9215" y2="93.3076" gradientUnits="userSpaceOnUse">
<stop stop-color="#FFF8E1"/>
<stop offset="1" stop-color="#FFCC80"/>
</linearGradient>
<linearGradient id="paint10_linear_1_1168" x1="7440.69" y1="2664.08" x2="7907.95" y2="3198.38" gradientUnits="userSpaceOnUse">
<stop stop-color="#FFF8E1"/>
<stop offset="1" stop-color="#FFCC80"/>
</linearGradient>
<linearGradient id="paint11_linear_1_1168" x1="7600.73" y1="2922.71" x2="8003" y2="3717.07" gradientUnits="userSpaceOnUse">
<stop stop-color="#FFF8E1"/>
<stop offset="1" stop-color="#FFCC80"/>
</linearGradient>
</defs>
</svg>
