<svg width="182" height="121" viewBox="0 0 182 121" fill="none" xmlns="http://www.w3.org/2000/svg">
<path d="M181.937 60.36C181.931 71.4526 178.796 82.3296 172.876 91.7989C166.956 101.268 158.478 108.964 148.373 114.044C147.782 114.347 147.181 114.635 146.575 114.915C146.303 115.045 146.036 115.166 145.759 115.287C144.032 116.06 142.261 116.753 140.445 117.368C139.014 117.857 137.545 118.299 136.061 118.681C122.049 122.322 107.172 121.059 94.0153 115.11C93.4762 114.863 92.9372 114.612 92.4077 114.351C82.557 109.543 74.2006 102.255 68.2019 93.24C62.2033 84.2253 58.78 73.8111 58.2857 63.0734C57.7914 52.3356 60.2441 41.6638 65.3903 32.1606C70.5365 22.6573 78.1895 14.6674 87.5587 9.01628C96.9279 3.36515 107.673 0.257831 118.685 0.0153643C129.697 -0.227103 140.575 2.40408 150.196 7.63706C159.816 12.87 167.831 20.515 173.411 29.782C178.991 39.0491 181.935 49.6021 181.937 60.3506V60.36Z" fill="url(#paint0_linear_1_1130)"/>
<path d="M95.8326 97.6204L89.0015 87.2066C89.0015 87.2066 107.925 65.8578 109.819 64.5962C109.819 64.5962 100.274 80.2238 95.8326 97.6204Z" fill="url(#paint1_linear_1_1130)"/>
<path d="M89.0015 87.2067L76.1216 98.3792L52.4273 87.2067L34.3 88.1749C34.3 88.1749 45.5914 91.8991 48.7685 91.7455L51.9503 91.5919C51.9503 91.5919 71.4085 109.901 75.8831 111.297C80.3577 112.694 95.0551 101.745 95.0551 101.745L95.909 97.653L89.0015 87.2067Z" fill="url(#paint2_linear_1_1130)"/>
<path d="M124.541 62.0684C122.751 62.9141 120.826 63.4557 118.85 63.6698C116.565 64.005 113.092 62.7667 113.092 62.7667C115.715 60.751 115.105 55.998 115.105 55.998L115.162 55.9701C117.962 55.7606 120.305 54.2104 121.941 52.7114C121.349 56.7801 124.541 62.0684 124.541 62.0684Z" fill="url(#paint3_linear_1_1130)"/>
<path d="M124.541 46.9296V49.7228C123.795 50.8079 122.924 51.806 121.946 52.6975V52.6975C120.309 54.2011 117.967 55.7513 115.167 55.9561C113.895 56.051 112.617 55.8681 111.427 55.4208C103.794 52.6276 109.161 37.8473 109.161 37.8473C111.584 31.8327 122.556 34.7422 122.556 34.7422C124.025 36.4507 124.307 41.2223 124.25 41.6878C124.005 42.3419 123.685 42.9666 123.296 43.5499C123.296 43.5499 125.38 41.632 126.096 42.9075C126.811 44.1831 124.541 46.9296 124.541 46.9296Z" fill="url(#paint4_linear_1_1130)"/>
<path d="M124.541 49.7321V46.9389C124.541 46.9389 126.807 44.2156 126.091 42.9308C125.376 41.6459 123.291 43.5732 123.291 43.5732C123.68 42.9899 124 42.3651 124.245 41.7111C124.302 41.2456 124.064 36.744 122.551 34.7655C122.551 34.7655 111.58 31.856 109.156 37.8705C109.156 37.8705 106.017 37.0931 103.313 33.4481C98.8906 27.4847 104.171 26.7539 109.404 27.9037C115.754 29.3003 122.117 24.7195 129.392 29.3747C136.667 34.03 130.146 44.6113 124.541 49.7321Z" fill="#262F72"/>
<g filter="url(#filter0_d_1_1130)">
<path d="M74.6047 23.7419H12.7096C11.2131 23.7419 10 24.9258 10 26.3861V82.0813C10 83.5416 11.2131 84.7255 12.7096 84.7255H74.6047C76.1011 84.7255 77.3143 83.5416 77.3143 82.0813V26.3861C77.3143 24.9258 76.1011 23.7419 74.6047 23.7419Z" fill="white"/>
</g>
<path d="M20.3087 34.7934C20.1368 34.9831 19.9161 35.1246 19.6694 35.2031C19.3751 35.3028 19.0651 35.3516 18.7535 35.3474C18.4302 35.3546 18.1107 35.2774 17.8281 35.1239C17.5603 34.9722 17.3459 34.745 17.2127 34.4722C17.0611 34.1579 16.9845 33.8141 16.9885 33.4667V33.1967C16.9798 32.8433 17.0498 32.4923 17.1936 32.1679C17.3173 31.8927 17.5235 31.6605 17.7852 31.5022C18.1018 31.3349 18.4596 31.2563 18.8191 31.2752C19.1786 31.2941 19.5257 31.4097 19.8221 31.6092C20.1066 31.8632 20.2779 32.2158 20.2991 32.5915H19.4834C19.4649 32.4017 19.3768 32.2248 19.2354 32.0934C19.0854 31.9812 18.8993 31.9251 18.7106 31.9351C18.5834 31.9282 18.4566 31.9532 18.3421 32.0078C18.2277 32.0624 18.1295 32.1448 18.0571 32.247C17.8897 32.5289 17.8116 32.8529 17.8329 33.178V33.4294C17.8122 33.757 17.8973 34.0826 18.0762 34.3605C18.1587 34.4667 18.2666 34.5515 18.3906 34.6075C18.5145 34.6635 18.6506 34.689 18.7869 34.6817C19.0285 34.7023 19.2689 34.6324 19.4595 34.4862V33.8018H18.6963V33.2013H20.2991L20.3087 34.7934Z" fill="#64B5F6"/>
<path d="M69.3574 31.2694H25.4989C24.9641 31.2694 24.5305 31.6925 24.5305 32.2144V35.65C24.5305 36.1719 24.9641 36.595 25.4989 36.595H69.3574C69.8922 36.595 70.3258 36.1719 70.3258 35.65V32.2144C70.3258 31.6925 69.8922 31.2694 69.3574 31.2694Z" fill="#E7EEF2"/>
<path d="M70.3258 39.6023H24.5305V40.5333H70.3258V39.6023Z" fill="#BBDEFB"/>
<path d="M70.3258 41.6971H24.5305V42.6282H70.3258V41.6971Z" fill="#E7E8E9"/>
<path d="M70.3258 43.792H24.5305V44.723H70.3258V43.792Z" fill="#E7E8E9"/>
<path d="M70.3258 45.8868H24.5305V46.8179H70.3258V45.8868Z" fill="#E7E8E9"/>
<path d="M70.3258 49.8065H24.5305V50.7376H70.3258V49.8065Z" fill="#BBDEFB"/>
<path d="M70.3258 51.9014H24.5305V52.8324H70.3258V51.9014Z" fill="#E7E8E9"/>
<path d="M70.3258 53.9963H24.5305V54.9274H70.3258V53.9963Z" fill="#E7E8E9"/>
<path d="M70.3258 56.0912H24.5305V57.0222H70.3258V56.0912Z" fill="#E7E8E9"/>
<path d="M70.3258 59.8944H24.5305V60.8255H70.3258V59.8944Z" fill="#BBDEFB"/>
<path d="M70.3258 61.9893H24.5305V62.9203H70.3258V61.9893Z" fill="#E7E8E9"/>
<path d="M70.3258 64.0842H24.5305V65.0153H70.3258V64.0842Z" fill="#E7E8E9"/>
<path d="M70.3258 66.179H24.5305V67.11H70.3258V66.179Z" fill="#E7E8E9"/>
<path d="M70.3258 69.9823H24.5305V70.9133H70.3258V69.9823Z" fill="#BBDEFB"/>
<path d="M70.3258 72.0771H24.5305V73.0082H70.3258V72.0771Z" fill="#E7E8E9"/>
<path d="M70.3258 74.172H24.5305V75.103H70.3258V74.172Z" fill="#E7E8E9"/>
<path d="M70.3258 76.2668H24.5305V77.1979H70.3258V76.2668Z" fill="#E7E8E9"/>
<path d="M141.041 84.5579C144.304 94.036 146.723 105.008 148.373 114.044C147.782 114.347 147.181 114.635 146.575 114.915C146.303 115.045 146.036 115.166 145.759 115.287C144.032 116.06 142.261 116.754 140.445 117.368C139.014 117.857 137.545 118.299 136.061 118.681C122.049 122.322 107.172 121.059 94.0153 115.11C93.4763 114.863 92.9372 114.612 92.4077 114.351C93.3618 109.57 94.4971 103.952 95.828 97.6252C96.3114 95.3317 96.8187 92.9451 97.3498 90.4654C100.083 77.7613 104.004 70.8436 107.243 67.0961L107.277 67.0589C107.892 66.3465 108.559 65.6775 109.271 65.0571C109.291 65.0346 109.313 65.0143 109.338 64.9966C109.5 64.857 109.662 64.7266 109.815 64.6009C111.766 63.0507 113.092 62.7668 113.092 62.7668L113.211 62.8087H113.278C114.314 63.2074 115.4 63.4689 116.507 63.5861H116.694H116.722C117.429 63.6521 118.141 63.663 118.85 63.6187H118.893C120.861 63.4962 122.779 62.9561 124.512 62.0359V62.0359C126.544 62.6918 128.458 63.6547 130.184 64.8895C135.117 68.4229 145.053 81.3784 145.053 81.3784L141.041 84.5579Z" fill="url(#paint5_linear_1_1130)"/>
<path d="M159.211 102.248C159.183 103.542 157.976 106.167 156.211 109.352C153.721 111.105 151.099 112.674 148.368 114.044C147.777 114.347 147.176 114.635 146.57 114.915C146.298 115.045 146.031 115.166 145.754 115.287C144.027 116.06 142.256 116.753 140.44 117.368L145.048 103.035L133.122 90.8145L141.036 84.5579L145.048 81.3877C145.048 81.3877 159.335 97.2434 159.211 102.248Z" fill="url(#paint6_linear_1_1130)"/>
<defs>
<filter id="filter0_d_1_1130" x="0" y="17.7419" width="87.3142" height="80.9835" filterUnits="userSpaceOnUse" color-interpolation-filters="sRGB">
<feFlood flood-opacity="0" result="BackgroundImageFix"/>
<feColorMatrix in="SourceAlpha" type="matrix" values="0 0 0 0 0 0 0 0 0 0 0 0 0 0 0 0 0 0 127 0" result="hardAlpha"/>
<feOffset dy="4"/>
<feGaussianBlur stdDeviation="5"/>
<feColorMatrix type="matrix" values="0 0 0 0 0 0 0 0 0 0 0 0 0 0 0 0 0 0 0.15 0"/>
<feBlend mode="normal" in2="BackgroundImageFix" result="effect1_dropShadow_1_1130"/>
<feBlend mode="normal" in="SourceGraphic" in2="effect1_dropShadow_1_1130" result="shape"/>
</filter>
<linearGradient id="paint0_linear_1_1130" x1="120.334" y1="6.55512" x2="118.319" y2="125.535" gradientUnits="userSpaceOnUse">
<stop stop-color="white" stop-opacity="0"/>
<stop offset="1" stop-color="#64B5F6" stop-opacity="0.6"/>
</linearGradient>
<linearGradient id="paint1_linear_1_1130" x1="100.913" y1="62.3803" x2="97.5039" y2="94.6356" gradientUnits="userSpaceOnUse">
<stop stop-color="#42A5F5"/>
<stop offset="1" stop-color="#1565C0"/>
</linearGradient>
<linearGradient id="paint2_linear_1_1130" x1="59.6305" y1="96.3216" x2="99.1902" y2="101.694" gradientUnits="userSpaceOnUse">
<stop stop-color="#FFE082"/>
<stop offset="1" stop-color="#FFA726"/>
</linearGradient>
<linearGradient id="paint3_linear_1_1130" x1="8897.87" y1="2327.07" x2="8900.52" y2="2117.76" gradientUnits="userSpaceOnUse">
<stop stop-color="#FFE082"/>
<stop offset="1" stop-color="#FFA726"/>
</linearGradient>
<linearGradient id="paint4_linear_1_1130" x1="14159.7" y1="3727.5" x2="14908.9" y2="3727.5" gradientUnits="userSpaceOnUse">
<stop stop-color="#FFE082"/>
<stop offset="1" stop-color="#FFA726"/>
</linearGradient>
<linearGradient id="paint5_linear_1_1130" x1="40575.7" y1="13812.9" x2="45974.8" y2="19173.6" gradientUnits="userSpaceOnUse">
<stop stop-color="#42A5F5"/>
<stop offset="1" stop-color="#1565C0"/>
</linearGradient>
<linearGradient id="paint6_linear_1_1130" x1="21738.9" y1="11217.6" x2="21381.2" y2="8910.65" gradientUnits="userSpaceOnUse">
<stop stop-color="#FFE082"/>
<stop offset="1" stop-color="#FFA726"/>
</linearGradient>
</defs>
</svg>
