<svg width="34" height="38" viewBox="0 0 34 38" fill="none" xmlns="http://www.w3.org/2000/svg">
<g clip-path="url(#clip0_94_2)">
<path d="M32.5603 11.875C33.0532 11.875 33.4564 11.4742 33.4564 10.9844V8.01562C33.4564 7.52578 33.0532 7.125 32.5603 7.125H31.0667V3.5625C31.0667 1.5957 29.4611 0 27.4821 0H3.58462C1.60561 0 0 1.5957 0 3.5625V34.4375C0 36.4043 1.60561 38 3.58462 38H27.4821C29.4611 38 31.0667 36.4043 31.0667 34.4375V30.875H32.5603C33.0532 30.875 33.4564 30.4742 33.4564 29.9844V27.0156C33.4564 26.5258 33.0532 26.125 32.5603 26.125H31.0667V21.375H32.5603C33.0532 21.375 33.4564 20.9742 33.4564 20.4844V17.5156C33.4564 17.0258 33.0532 16.625 32.5603 16.625H31.0667V11.875H32.5603ZM15.5333 9.5C18.1695 9.5 20.3128 11.6301 20.3128 14.25C20.3128 16.8699 18.1695 19 15.5333 19C12.8972 19 10.7539 16.8699 10.7539 14.25C10.7539 11.6301 12.8972 9.5 15.5333 9.5ZM23.8975 27.075C23.8975 27.8617 23.1507 28.5 22.2246 28.5H8.84206C7.91603 28.5 7.16924 27.8617 7.16924 27.075V25.65C7.16924 23.2898 9.41709 21.375 12.1877 21.375H12.5611C13.4797 21.7535 14.4804 21.9688 15.5333 21.9688C16.5863 21.9688 17.5945 21.7535 18.5056 21.375H18.879C21.6496 21.375 23.8975 23.2898 23.8975 25.65V27.075Z" fill="#316099"/>
</g>
<defs>
<clipPath id="clip0_94_2">
<rect width="33.4564" height="38" fill="white"/>
</clipPath>
</defs>
</svg>
